<?xml version="1.0" encoding="utf-8"?>
<!-- Generator: Adobe Illustrator 22.1.0, SVG Export Plug-In . SVG Version: 6.00 Build 0)  -->
<svg version="1.1" id="Ebene_1" xmlns="http://www.w3.org/2000/svg" xmlns:xlink="http://www.w3.org/1999/xlink" x="0px" y="0px"
	 viewBox="0 0 287.118 136.09" style="enable-background:new 0 0 287.118 136.09;" xml:space="preserve">
<style type="text/css">
	.st0{fill:#FFFFFF;}
</style>
<g>
	<path id="_x2E_" class="st0" d="M237.207,115.297c-2.308-2.412-3.459-6.707-3.459-12.893c0-6.182,1.151-10.531,3.459-13.049
		c2.303-2.514,6.84-3.771,13.598-3.771c6.761,0,11.291,1.258,13.601,3.771c2.303,2.518,3.457,6.867,3.457,13.049
		c0,6.186-1.154,10.48-3.457,12.893c-2.31,2.41-6.84,3.615-13.601,3.615C244.047,118.912,239.51,117.707,237.207,115.297z"/>
	<path id="L" class="st0" d="M228.247,117.968h-62.88V19.716h31.439v73.098h31.439L228.247,117.968L228.247,117.968z"/>
	<path class="st0" d="M144.304,29.701c-6.709-8.231-18.813-12.344-36.314-12.344c-17.502,0-29.607,4.114-36.314,12.344
		C64.967,37.928,61.615,51,61.615,68.922c0,8.908,0.708,16.4,2.117,22.479c1.417,6.08,3.854,11.375,7.313,15.879
		c3.459,4.507,8.225,7.808,14.305,9.902c6.076,2.097,13.623,3.146,22.638,3.146c9.012,0,16.558-1.048,22.637-3.146
		c6.078-2.091,10.849-5.392,14.308-9.902c3.459-4.504,5.894-9.799,7.309-15.879c1.415-6.079,2.123-13.571,2.123-22.479
		C154.365,51,151.009,37.928,144.304,29.701z M134.839,85.879l-1.359,1.361h-9.525V73.636h-2.721v0.002h-0.002V87.24h-2.721V73.636
		h-2.721v0.002h-0.002V87.24h-2.719V73.636h-2.723v0.002h-0.002V87.24h-2.719V73.636h-2.721v0.002h-0.002V87.24h-2.721V73.636H99.46
		v0.002h-0.002V87.24h-2.719V73.636h-2.717v0.002H94.02v13.604h-9.523l-1.361-1.361v-9.523l1.361-0.682v-2.724l0.003,0.004v-4.762
		l-1.361-0.68v-7.482l1.359-1.359H94.7l0-0.002h0.003l0.34-5.439h5.101l0-0.002h0.003l0.68-5.439h16.323l0.68,5.441h0.003v0h5.101
		l0.34,5.441h10.203l1.359,1.361v7.482l-1.356,0.678v0l-0.003,0.002v4.762l0.003-0.004v2.72l1.359,0.682V85.879z"/>
	<path id="I" class="st0" d="M19.172,117.968V19.716h31.44v98.252H19.172z"/>
</g>
<path class="st0" d="M287.118,136.09H0V0h287.118V136.09z M10,126.09h267.118V10H10V126.09z"/>
</svg>
